HIERARCHY
ROOT root
{
	OFFSET 0.000000 0.000000 0.000000
	CHANNELS 6 Xposition Yposition Zposition Zrotation Yrotation Xrotation
	JOINT lhip
	{
		OFFSET 0.058581 -0.082280 -0.017664
		CHANNELS 3 Zrotation Yrotation Xrotation
		JOINT lknee
		{
			OFFSET 0.043451 -0.386469 0.008037
			CHANNELS 3 Zrotation Yrotation Xrotation
			JOINT lankle
			{
				OFFSET -0.014790 -0.426874 -0.037428
				CHANNELS 3 Zrotation Yrotation Xrotation
				JOINT ltoe
				{
					OFFSET 0.041054 -0.060286 0.122042
					CHANNELS 3 Zrotation Yrotation Xrotation
					End Site
					{
						OFFSET 0.000000 0.000000 0.000000
					}
				}
			}
		}
	}
	JOINT rhip
	{
		OFFSET -0.060310 -0.090513 -0.013543
		CHANNELS 3 Zrotation Yrotation Xrotation
		JOINT rknee
		{
			OFFSET -0.043257 -0.383688 -0.004843
			CHANNELS 3 Zrotation Yrotation Xrotation
			JOINT rankle
			{
				OFFSET 0.019056 -0.420046 -0.034562
				CHANNELS 3 Zrotation Yrotation Xrotation
				JOINT rtoe
				{
					OFFSET -0.034840 -0.062106 0.130323
					CHANNELS 3 Zrotation Yrotation Xrotation
					End Site
					{
						OFFSET 0.000000 0.000000 0.000000
					}
				}
			}
		}
	}
	JOINT lowerback
	{
		OFFSET 0.004439 0.124404 -0.038385
		CHANNELS 3 Zrotation Yrotation Xrotation
		JOINT upperback
		{
			OFFSET 0.004488 0.137956 0.026820
			CHANNELS 3 Zrotation Yrotation Xrotation
			JOINT chest
			{
				OFFSET -0.002265 0.056032 0.002855
				CHANNELS 3 Zrotation Yrotation Xrotation
				JOINT lowerneck
				{
					OFFSET -0.013390 0.211636 -0.033468
					CHANNELS 3 Zrotation Yrotation Xrotation
					JOINT upperneck
					{
						OFFSET 0.010113 0.088937 0.050410
						CHANNELS 3 Zrotation Yrotation Xrotation
						End Site
						{
							OFFSET 0.000000 0.000000 0.000000
						}
					}
				}
				JOINT lclavicle
				{
					OFFSET 0.071702 0.114000 -0.018898
					CHANNELS 3 Zrotation Yrotation Xrotation
					JOINT lshoulder
					{
						OFFSET 0.122921 0.045205 -0.019046
						CHANNELS 3 Zrotation Yrotation Xrotation
						JOINT lelbow
						{
							OFFSET 0.255332 -0.015649 -0.022946
							CHANNELS 3 Zrotation Yrotation Xrotation
							JOINT lwrist
							{
								OFFSET 0.265709 0.012698 -0.007375
								CHANNELS 3 Zrotation Yrotation Xrotation
								End Site
								{
									OFFSET 0.000000 0.000000 0.000000
								}
							}
						}
					}
				}
				JOINT rclavicle
				{
					OFFSET -0.082954 0.112472 -0.023707
					CHANNELS 3 Zrotation Yrotation Xrotation
					JOINT rshoulder
					{
						OFFSET -0.113228 0.046853 -0.008472
						CHANNELS 3 Zrotation Yrotation Xrotation
						JOINT relbow
						{
							OFFSET -0.260127 -0.014369 -0.031269
							CHANNELS 3 Zrotation Yrotation Xrotation
							JOINT rwrist
							{
								OFFSET -0.269108 0.006794 -0.006027
								CHANNELS 3 Zrotation Yrotation Xrotation
								End Site
								{
									OFFSET 0.000000 0.000000 0.000000
								}
							}
						}
					}
				}
			}
		}
	}
}
MOTION
Frames: 11
Frame Time: 0.033333
-0.047858 0.182337 1.000328 -80.669002 -4.267032 98.003233 -11.019038 1.515398 -2.635537 -2.063300 3.412128 -3.516708 6.494871 29.506471 -26.833159 0.000000 -0.000000 0.000000 3.225972 -3.255225 -35.259489 -4.211924 -17.932476 1.266372 -5.808246 -21.189561 29.305596 0.000000 -0.000000 0.000000 -9.132203 -0.428493 1.232918 4.670853 -2.999093 20.273226 0.064181 -1.486714 -12.094391 0.856366 -8.034736 16.173459 8.499685 6.053350 2.782892 -24.528553 3.632209 2.924745 -53.080407 -5.491560 16.914272 4.596148 -10.863630 -3.291426 4.464476 3.994508 15.817812 19.392579 -2.631194 -3.995302 59.651547 1.346078 18.933390 6.180263 0.967123 8.578454 -4.217825 -0.070481 8.291291 
-0.060464 0.181833 0.997153 -80.176426 -4.884123 97.996273 -11.441041 1.777463 -1.671171 -2.149251 2.513571 -3.562654 6.127028 30.077374 -27.577251 0.000000 -0.000000 0.000000 3.290922 -3.195158 -33.960444 -4.393351 -17.535512 1.447776 -6.129605 -22.768184 24.954503 0.000000 -0.000000 0.000000 -8.985394 -0.723695 0.795685 4.105542 -3.320562 19.883228 -0.209958 -1.605238 -11.754621 -0.005621 -8.281088 17.027519 9.106802 6.599681 2.524643 -23.769643 2.829327 3.586692 -52.449403 -4.786395 18.531244 1.858137 -11.145612 3.717784 -0.852920 4.289075 15.790316 18.754942 -2.366596 -4.029622 60.301416 0.978902 19.266322 6.372786 1.703070 9.493241 -0.353827 -0.397413 5.935169 
-0.074405 0.181168 0.993010 -80.007496 -5.796843 99.187625 -12.295457 1.773633 -1.699682 -2.168032 2.107517 -4.101873 5.720388 29.795605 -27.814528 0.000000 -0.000000 0.000000 3.207766 -2.929833 -33.586060 -4.726124 -17.611698 0.247280 -6.459905 -23.472379 20.882904 0.000000 -0.000000 0.000000 -9.009098 -1.034312 -1.299876 3.428640 -3.572164 19.869916 -0.633170 -1.794387 -11.742839 -1.120342 -8.486450 17.971502 10.293686 7.013715 2.746730 -23.884534 2.321407 4.390143 -50.588962 -3.855612 20.574605 -1.529863 -11.522505 11.580498 -4.569879 2.279715 18.274965 18.378492 -2.547708 -4.096974 60.738798 0.712188 19.647920 7.001893 1.689634 10.296220 2.017063 0.581054 4.840843 
-0.094032 0.181308 0.989032 -79.433580 -6.319566 99.824457 -12.600306 1.849948 -1.280029 -2.091073 1.234584 -3.632272 5.512811 30.641430 -29.153458 0.000000 -0.000000 0.000000 3.703175 -2.782542 -32.372483 -5.293659 -17.773798 -1.272777 -7.365306 -24.054451 16.904333 0.000000 -0.000000 0.000000 -8.891352 -1.427609 -2.681061 3.008452 -4.076008 20.669062 -0.780088 -2.005453 -12.924798 -1.938565 -8.499512 18.788777 10.555210 7.778704 2.378883 -24.867438 1.633478 5.453480 -48.351602 -2.022555 22.257512 -4.172271 -12.759251 17.670935 -6.997153 -0.644739 20.643306 18.311219 -2.365758 -3.899564 60.706588 -0.083397 19.859352 7.322932 2.036543 11.620441 3.176455 2.157056 3.764363 
-0.106687 0.181579 0.986814 -79.444528 -6.539807 100.124133 -12.634162 1.916384 -0.847802 -2.114846 0.744842 -3.482086 5.243852 30.897924 -29.659940 0.000000 -0.000000 0.000000 4.078010 -2.875908 -31.782252 -5.358412 -17.703691 -1.498071 -9.045895 -25.022701 14.570453 0.000000 -0.000000 0.000000 -8.963616 -1.468641 -3.549714 2.893129 -4.223452 21.613450 -0.811392 -2.138056 -13.810903 -2.134281 -8.571972 18.733644 10.600964 8.134892 2.836103 -25.491789 1.329265 5.943179 -47.255651 -1.043232 23.178839 -5.377992 -12.945598 20.354425 -7.996324 -1.408211 21.296975 18.505547 -2.283858 -3.934698 60.476367 -0.441237 20.463703 7.445887 1.994194 12.305599 2.982016 2.895914 3.040268 
-0.124174 0.181660 0.983895 -79.236878 -6.427868 100.348796 -12.228579 2.180299 -0.274979 -2.027094 0.485301 -2.673525 4.624561 30.926014 -31.132401 0.000000 -0.000000 0.000000 4.526254 -2.646593 -30.632245 -5.523377 -17.566632 -1.763128 -8.687181 -25.295004 10.714644 0.000000 -0.000000 0.000000 -8.614568 -1.719120 -4.451819 2.804096 -4.466204 22.286339 -0.864802 -2.180369 -14.246901 -2.263018 -8.358062 18.727462 10.797932 8.096099 2.641489 -25.670286 1.383390 6.188340 -47.195580 -0.564642 23.660292 -6.075124 -12.171482 21.211050 -12.305011 -0.674979 21.409556 18.494664 -2.055207 -3.921696 60.278073 -0.614329 21.064554 7.348250 1.810109 12.840617 5.947895 2.926156 2.027891 
-0.142609 0.181464 0.980995 -79.675739 -5.964257 100.575931 -11.594716 2.433412 0.590268 -1.885450 0.422764 -2.362538 3.965389 31.265473 -32.316452 0.000000 -0.000000 0.000000 5.176282 -1.967370 -29.446606 -5.641667 -17.000164 -1.898089 -8.235868 -25.389859 7.655818 0.000000 -0.000000 0.000000 -8.142011 -1.775153 -4.995800 2.884546 -4.429826 22.296703 -0.792315 -2.130703 -14.407361 -2.136403 -8.104200 18.655232 10.531828 7.981493 2.187625 -25.427525 1.849492 6.159328 -48.177720 -0.000354 23.105208 -5.851288 -11.133926 19.932197 -16.238248 1.229976 21.357147 18.334601 -1.839304 -3.471216 60.048319 -0.188064 21.375009 7.203335 1.026990 13.512945 9.657606 1.459883 2.593371 
-0.162114 0.181381 0.979052 -80.221272 -4.714850 101.081619 -10.198101 2.860605 0.830013 -1.553230 0.685535 -1.256739 2.840486 31.748055 -33.946185 0.000000 -0.000000 0.000000 6.451848 -0.644484 -27.657663 -5.227008 -17.233822 -3.742252 -8.316106 -25.479398 6.703391 0.000000 -0.000000 0.000000 -6.878205 -1.697422 -5.742290 3.225991 -4.396863 21.956074 -0.763564 -1.823012 -14.496088 -1.938689 -7.424941 19.021254 9.776095 7.472274 2.087273 -25.379604 2.542514 5.884004 -49.371345 0.546764 22.255085 -5.281260 -9.963416 17.820021 -21.332584 2.663482 19.026869 18.076013 -1.541164 -3.417924 59.504597 -0.689732 21.757998 6.866546 0.929690 14.538267 13.273249 0.394187 1.546848 
-0.180709 0.181351 0.977740 -80.997186 -3.289284 101.876877 -8.701901 3.274758 0.268016 -1.112360 1.582032 0.584479 1.670521 31.182269 -35.481626 0.000000 -0.000000 0.000000 7.835125 0.348505 -26.567262 -4.674731 -17.255969 -4.799717 -7.247186 -25.291656 5.522021 0.000000 -0.000000 0.000000 -5.535875 -1.525119 -5.602137 3.713032 -3.995779 19.892303 -0.654993 -1.536967 -14.016920 -1.455239 -6.769166 18.953809 8.970561 6.745613 1.907604 -24.729003 3.656241 5.189167 -51.110196 0.798463 22.179786 -4.944868 -8.657231 16.548119 -26.344026 3.483480 16.841284 17.515443 -1.450041 -3.293442 59.334280 -0.962405 22.579083 6.505683 1.169406 16.157488 16.281847 0.223952 0.471245 
-0.204517 0.180827 0.978130 -81.306091 -1.786814 102.559712 -6.869523 3.505332 -0.678706 -1.022058 2.729988 4.008253 1.039506 31.581533 -37.205888 0.000000 -0.000000 0.000000 9.166649 0.788252 -24.801210 -3.479654 -16.956105 -6.144253 -7.276416 -25.048981 4.698841 0.000000 -0.000000 0.000000 -4.484363 -1.077922 -5.676973 4.582285 -3.732761 18.358588 -0.286173 -1.142510 -14.123577 -0.732706 -6.728517 18.834138 7.620911 6.086904 2.837375 -23.521994 4.386304 5.517670 -53.595135 0.928642 22.052352 -4.269495 -8.654771 16.598582 -31.545137 7.948412 15.543826 16.581038 -1.687198 -2.879500 59.324884 -1.011856 22.962379 6.169329 1.023820 18.738217 20.923723 -2.814995 0.630449 
-0.221433 0.180334 0.977858 -80.622426 -1.010150 102.938015 -5.555880 3.495374 -2.109751 -1.050423 2.972147 7.966335 0.881107 32.043631 -37.853000 0.000000 -0.000000 0.000000 9.665471 0.620807 -24.152611 -2.590641 -17.028467 -5.913110 -7.117593 -26.120715 2.337924 0.000000 -0.000000 0.000000 -3.883296 -0.786001 -5.298448 5.131538 -3.751002 16.911955 0.130012 -1.026684 -13.659777 -0.361026 -7.178603 18.168946 7.091314 5.423801 3.213082 -22.432199 4.348011 5.689995 -55.286807 0.611645 22.186489 -4.289700 -8.558072 18.208332 -35.019352 11.286214 15.376786 15.946336 -1.443316 -3.026544 59.307721 -1.196256 23.058809 6.028630 0.638965 19.973054 24.562054 -5.544581 0.194113 
